<svg version="1.1" id="Layer_1" xmlns="http://www.w3.org/2000/svg" xmlns:xlink="http://www.w3.org/1999/xlink" x="0px" y="0px"
	 width="100%" viewBox="0 0 448 304" enable-background="new 0 0 448 304" xml:space="preserve">
<path fill="#5bb959" opacity="1.000000" stroke="none" 
	d="
M28.833490,136.547485 
	C30.289280,133.568115 28.510233,132.122452 26.832722,130.727539 
	C24.009455,128.379898 22.342550,125.399834 21.790033,121.808571 
	C20.942390,116.299057 24.137194,113.100754 29.661615,114.105659 
	C31.589556,114.456352 33.499367,115.248245 35.244221,116.167465 
	C36.974594,117.079056 38.486816,118.404732 40.069241,119.530678 
	C44.226765,114.738914 44.554356,111.070541 40.465290,105.813675 
	C38.427071,103.193359 38.310566,101.136406 39.367905,98.196838 
	C43.338097,87.159081 39.651684,75.791832 40.506744,64.599930 
	C41.330105,53.822884 43.518322,48.032303 56.485172,49.530731 
	C62.630825,50.240913 68.993134,49.982124 74.433640,54.179867 
	C76.317131,55.633114 79.234955,56.378735 81.917152,56.155060 
	C83.042389,55.080753 82.618530,53.895245 82.379196,52.791065 
	C81.969238,50.899765 81.971413,48.444618 83.187057,47.559566 
	C87.357170,44.523491 89.355415,39.217369 94.044334,36.998856 
	C98.444855,34.916798 102.780563,33.002087 105.618767,28.534464 
	C106.131111,33.106903 103.524979,35.897552 100.198364,38.129070 
	C98.857384,39.028606 97.100365,39.291370 95.562935,39.918133 
	C92.483841,41.173382 89.761223,42.622929 92.910004,46.225471 
	C92.081825,47.927696 90.724716,47.240211 89.675568,47.461452 
	C87.827934,47.851078 86.718231,48.919537 86.427620,50.775272 
	C86.138458,52.621716 86.817268,53.866772 88.519119,54.856792 
	C91.414795,56.541283 94.132973,58.558372 97.772316,57.258835 
	C99.535828,56.629112 101.157326,58.632935 102.968307,57.654392 
	C103.289635,55.246574 97.700310,54.963604 100.682877,52.251183 
	C103.339943,49.834778 103.466042,54.644592 105.477615,54.905876 
	C108.636864,51.516167 111.433655,51.341900 115.032188,54.561516 
	C118.425079,57.597130 122.552734,59.353748 126.474197,61.469532 
	C127.478691,62.011494 128.729370,62.554920 129.795639,62.439423 
	C133.085571,62.083054 137.115097,61.858189 137.861679,57.953918 
	C138.575653,54.220222 135.007706,53.252018 132.102020,52.313156 
	C127.773636,50.914608 123.223648,51.062733 118.792984,50.376953 
	C116.074783,49.956234 114.054970,49.092003 113.659103,45.960854 
	C113.224724,42.525047 112.090393,40.146076 108.338440,43.432961 
	C107.521347,44.148762 106.527199,44.376617 105.635384,43.576939 
	C104.501907,42.560574 104.824654,41.425671 105.776512,40.547470 
	C106.931389,39.481964 108.052094,38.773911 106.281898,37.092464 
	C105.191559,36.056782 105.946556,34.547134 107.034019,33.585670 
	C109.744637,31.189133 112.501419,28.844797 115.672958,26.587484 
	C113.818260,29.854404 112.649101,33.043228 115.327332,35.978569 
	C114.915321,38.225479 112.251686,36.739704 111.871758,38.658237 
	C111.871758,38.756844 111.850052,38.921024 111.875450,39.077564 
	C111.992676,39.800148 122.277870,47.667957 123.201736,47.594593 
	C127.412254,47.260262 131.460129,48.444477 135.587372,48.863564 
	C137.885056,49.096874 139.961273,49.554073 141.454987,51.949326 
	C143.551422,55.311092 147.258316,53.555126 150.233856,53.673885 
	C156.944077,53.941704 157.247940,54.154034 155.393967,60.688320 
	C158.629425,61.649876 161.454681,62.879925 163.763290,65.938011 
	C165.676254,68.472023 167.914978,71.621056 171.924072,72.542770 
	C173.778549,69.653618 176.784729,68.411491 179.950104,67.292564 
	C182.282013,66.468262 184.696777,65.547890 186.243958,63.409943 
	C189.511154,58.895271 193.319794,55.417484 198.903687,53.572506 
	C202.691772,52.320873 203.550797,47.719032 205.142014,44.341171 
	C207.293610,39.773758 209.936432,36.396675 215.538559,36.550896 
	C217.705780,36.610558 219.089920,35.019287 220.529007,33.575214 
	C222.044739,32.054214 223.589111,30.413420 225.435730,29.396635 
	C232.747360,25.370701 237.175369,27.777952 237.759445,35.891754 
	C251.267639,40.550991 251.369186,40.806774 243.351028,50.094509 
	C244.220505,51.804863 246.330185,51.364925 247.528778,52.457085 
	C249.642075,54.382698 251.658768,56.511120 248.085297,58.780964 
	C246.177643,59.992699 245.650314,61.508472 245.212616,63.588104 
	C243.865097,69.990723 241.158218,71.754120 234.585571,71.066246 
	C225.571320,70.122826 221.934372,72.491066 216.975235,80.394920 
	C215.217636,83.196167 212.119339,85.603302 208.878708,87.281410 
	C207.614227,87.936203 205.907837,88.136490 205.660065,90.326820 
	C211.725372,92.878014 211.803513,98.429932 212.048447,103.889015 
	C212.091858,104.856400 211.591660,106.479591 211.979614,106.705421 
	C217.834778,110.113716 219.413452,117.716759 225.964691,120.516380 
	C237.623856,125.498840 248.963882,131.264572 258.934021,139.112411 
	C263.421631,142.644775 267.504456,145.609543 273.441925,144.986526 
	C274.335510,144.892776 275.875183,145.342529 276.162567,145.974442 
	C278.446472,150.996597 283.214813,150.536697 287.423889,151.430191 
	C291.275604,152.247803 293.996338,154.442108 295.273346,158.316269 
	C296.035614,160.628754 297.265320,162.631165 300.120758,162.612213 
	C311.215515,162.538528 321.404327,165.889435 331.216370,170.727341 
	C331.915375,171.071991 332.750702,171.140213 333.950470,171.446014 
	C336.217499,166.066818 336.345245,160.310715 338.513794,155.083282 
	C345.831451,137.443512 361.005768,128.641937 379.960175,131.485535 
	C386.055695,132.399994 392.234375,131.485519 398.378082,132.551025 
	C410.637299,134.677200 417.567200,141.569336 420.436584,153.776199 
	C423.199005,165.527786 421.809540,176.778198 418.489594,188.093063 
	C414.366211,202.146194 410.558655,216.345078 402.249573,228.659805 
	C399.031342,233.429535 396.646820,238.441635 394.859253,243.840958 
	C394.351929,245.373245 393.821899,247.047073 395.359589,247.901764 
	C402.294342,251.756271 398.859467,256.877228 397.130920,261.681671 
	C394.084503,270.148987 390.091705,278.114777 383.614288,284.379364 
	C385.035858,287.134674 387.232513,286.677765 389.120789,286.603973 
	C394.508362,286.393433 399.724274,287.239929 404.907104,288.604462 
	C406.439423,289.007843 407.996094,289.263458 408.032532,291.170593 
	C408.071594,293.214233 406.575806,293.985626 404.804718,294.333313 
	C398.911560,295.490204 392.949066,296.186218 386.959015,296.273193 
	C375.461914,296.440094 363.956940,296.566559 352.464569,296.303162 
	C348.027466,296.201447 343.172943,295.934937 339.280029,294.103638 
	C329.695221,289.594788 320.452362,292.175995 311.000580,293.812103 
	C299.955231,295.723999 288.791565,295.547180 277.636902,295.227264 
	C276.982300,295.208496 276.144623,295.196075 275.711182,294.816437 
	C270.386230,290.152466 264.523438,292.614624 258.750671,293.371613 
	C255.293671,293.824890 251.799454,294.183411 248.317749,294.224304 
	C236.995026,294.357300 225.678986,294.449829 214.372162,295.253540 
	C204.859604,295.929657 195.439423,294.557922 186.064651,293.180450 
	C182.411484,292.643646 178.786880,291.398987 177.774704,287.073425 
	C177.231888,284.753632 175.651047,284.378479 173.659470,284.370667 
	C158.179962,284.310089 142.721313,284.901550 127.300591,286.188202 
	C117.594322,286.998077 108.064018,284.909851 98.432953,284.875732 
	C90.639175,284.848145 83.484459,282.121429 76.099380,280.315277 
	C74.297676,279.874573 72.953888,279.107513 72.864014,277.116699 
	C72.771469,275.066711 74.241234,274.221741 75.904655,273.684418 
	C82.126060,271.674713 88.601990,271.238586 95.052361,270.687683 
	C96.874336,270.532043 98.726578,270.720184 100.546272,270.550507 
	C107.373047,269.913940 109.718307,266.112915 107.933357,259.344238 
	C105.046501,248.397049 108.213264,239.857315 117.904335,235.810349 
	C121.887352,234.147049 125.618622,231.913239 130.060181,231.467621 
	C131.425858,231.330597 133.315079,231.096100 133.215027,229.010986 
	C133.131790,227.276230 131.895416,226.607025 130.220169,226.237762 
	C124.536240,224.984863 118.714821,224.745987 113.013474,223.425049 
	C100.322678,220.484772 91.214005,212.916931 85.175980,201.881226 
	C79.868118,192.180038 80.502708,182.167068 87.382011,173.245346 
	C97.380745,160.278076 106.730537,146.701630 119.400757,136.053116 
	C122.667503,133.307632 121.189331,130.449982 120.653679,127.422386 
	C120.138168,124.508728 117.974342,124.530380 115.746628,124.320702 
	C111.009979,123.874886 108.883278,120.744232 110.148643,115.985115 
	C110.612885,114.239052 111.462479,112.571793 112.305153,110.956688 
	C113.135994,109.364288 114.775887,108.241081 115.134407,106.101257 
	C114.796898,105.694664 114.467552,104.882652 113.962631,104.752663 
	C107.622147,103.120422 106.040611,96.490608 101.603798,92.790535 
	C99.777779,91.267731 98.388748,90.384758 96.243980,90.296906 
	C91.817734,90.115585 87.455078,90.751526 83.123573,88.376625 
	C80.182655,86.764145 78.600006,89.587845 79.551674,92.175163 
	C82.660751,100.627815 78.540390,108.254524 77.319870,116.204079 
	C76.994202,118.325256 75.674988,120.522827 76.010948,122.479439 
	C78.173866,135.075897 69.188492,146.875000 55.354507,149.765274 
	C52.073109,150.450836 48.377544,150.068268 45.718094,148.464554 
	C42.045124,146.249649 38.144543,145.327072 34.204411,144.153137 
	C30.712372,143.112717 28.307955,141.040787 28.833490,136.547485 
M148.746216,216.074051 
	C150.707413,217.496964 152.236725,216.039169 153.765060,215.209167 
	C156.723099,213.602753 159.072083,211.280548 161.248505,208.707047 
	C163.903870,205.567261 164.017761,208.710449 164.635498,210.238144 
	C169.219803,207.879196 173.908981,205.977982 177.856247,202.411880 
	C182.002289,198.666153 180.593185,192.652161 184.550949,187.511398 
	C185.839218,194.385986 185.607971,199.832275 181.717285,203.859360 
	C176.021210,209.755127 170.454590,216.076736 162.071793,218.539429 
	C160.364365,219.041046 158.856506,220.147659 157.825363,222.680923 
	C167.021240,221.689621 171.842072,212.883774 180.135513,210.946640 
	C180.588287,213.470078 178.509415,214.532715 178.348709,216.789215 
	C188.347626,212.017609 191.287949,203.094986 194.357605,194.277481 
	C196.059814,189.387878 194.443695,185.715164 190.480377,182.509811 
	C183.286209,176.691483 174.058868,179.343582 166.213440,176.354858 
	C165.740250,176.174591 164.915817,176.631912 164.368622,176.974380 
	C159.021545,180.321014 152.080765,182.123001 151.673447,190.273544 
	C151.621307,191.316666 150.532608,192.277527 150.055054,193.335587 
	C148.706406,196.323517 146.819595,196.396393 144.666733,194.004349 
	C139.820297,207.299149 124.159142,209.607040 118.071533,203.839584 
	C121.453300,201.592850 125.551262,203.409729 129.042572,201.434586 
	C134.793518,198.181122 136.227158,197.268600 136.756226,193.571579 
	C134.008881,193.854492 131.235229,197.254059 128.451599,193.907776 
	C140.204849,185.422943 151.743591,177.092957 164.228378,168.080017 
	C159.161758,166.652588 155.971161,169.773941 152.414932,167.490768 
	C174.732239,162.933060 194.596603,152.085541 216.355911,142.693100 
	C214.268753,148.357285 208.542694,148.431732 206.818420,152.803268 
	C217.056732,149.582657 217.056732,149.582657 220.223389,151.053909 
	C218.684250,154.413940 212.913849,153.047409 212.545197,157.283997 
	C213.411606,159.197311 215.454895,157.108215 216.037003,158.976959 
	C214.404419,163.102570 218.010605,171.905334 222.212128,173.363739 
	C225.884460,174.638458 228.698837,177.274567 233.678284,176.544830 
	C237.099411,176.043457 238.915329,175.358063 240.589859,172.913910 
	C242.241928,170.502563 243.439713,167.568298 247.044327,167.665085 
	C249.327255,171.564087 246.040604,174.571182 245.512756,177.867981 
	C250.680267,179.915222 255.083786,180.326401 258.100067,174.805908 
	C258.802887,173.519592 260.235413,172.411774 261.865936,173.513367 
	C263.292694,174.477295 263.598969,176.234085 262.696625,177.530197 
	C258.262543,183.899399 261.936493,191.573608 258.060577,198.606216 
	C264.175079,198.447952 265.151489,194.285995 266.675201,191.076462 
	C268.356934,187.533997 270.460449,186.408081 274.250092,188.365265 
	C271.972870,192.064224 269.800201,195.547821 267.672455,199.058655 
	C262.672974,207.307953 262.681671,207.313217 268.538635,215.343796 
	C271.516052,212.978500 274.637085,210.815399 279.092377,212.821991 
	C279.260437,217.036316 276.293701,218.559738 272.644073,219.570038 
	C275.201935,223.539948 279.328949,221.315231 281.935120,223.175415 
	C283.237091,221.880951 282.392548,218.769333 284.985291,219.682037 
	C289.790588,221.373596 282.992035,223.927246 284.989014,225.802429 
	C286.837189,227.172714 288.150116,224.251633 289.778198,225.624954 
	C290.046783,230.621140 292.386597,235.738464 286.488617,241.632660 
	C291.903412,240.454865 292.341522,243.102310 292.996094,245.278778 
	C295.959808,245.248291 298.589386,244.528748 301.240906,245.309860 
	C303.639160,246.016342 304.859680,244.801086 305.759857,242.616623 
	C311.053406,229.770111 321.678802,221.998001 332.874603,214.994781 
	C335.764038,213.187393 336.875122,211.721573 336.319092,208.350342 
	C334.914856,199.836121 332.900665,191.302399 334.127594,182.610260 
	C334.655121,178.873123 333.310333,177.354095 330.085419,175.840912 
	C318.155334,170.243271 305.420685,168.122955 292.553955,166.381851 
	C286.559479,165.570694 285.886688,163.903534 289.722900,158.641052 
	C287.811249,156.531097 285.594818,154.390610 282.599945,155.743515 
	C279.941772,156.944351 277.710236,158.456207 274.873962,156.361877 
	C274.794739,153.385025 275.401398,149.180923 271.156982,149.592911 
	C265.138000,150.177170 261.624115,147.476044 257.405365,143.733383 
	C248.162598,135.533600 237.006409,130.031448 226.031052,124.447556 
	C222.724060,122.765068 219.966553,121.017708 217.756363,117.729286 
	C211.351196,108.199379 209.716080,107.955162 198.737045,111.382446 
	C194.945145,112.566132 191.186661,113.933533 187.154434,114.306656 
	C181.244919,114.853508 176.015793,113.004372 170.945450,110.261879 
	C168.717224,109.056648 166.071411,108.333046 165.580673,111.873367 
	C164.697586,118.244370 160.268280,119.516930 155.025803,120.423271 
	C148.626572,121.529594 142.649353,124.413246 136.158432,125.266380 
	C136.026703,125.283684 135.967072,125.849663 135.492142,127.428253 
	C142.772385,126.664513 149.419083,127.901123 155.667160,132.123108 
	C149.352448,134.468094 149.352448,134.468094 148.741440,140.212845 
	C145.161591,139.670334 141.590729,139.122864 138.017731,138.589661 
	C135.060944,138.148407 132.586594,137.967758 130.446228,141.187943 
	C128.476303,144.151672 125.353767,146.341278 121.241829,146.457596 
	C119.454254,146.508163 117.692184,147.460388 115.918533,148.003082 
	C119.118210,148.825607 122.745979,147.935089 123.472275,152.789749 
	C120.279701,153.245605 117.182770,153.888901 114.251541,152.152985 
	C112.646912,151.202698 111.451469,151.776047 110.175125,152.748672 
	C100.307007,160.268646 93.313789,170.136917 87.864426,181.052399 
	C82.840645,191.115417 90.357841,208.186676 101.081390,211.331772 
	C104.505753,212.336090 108.178154,212.424469 111.633224,213.782303 
	C114.438248,214.884674 117.256958,215.460342 120.285515,212.862991 
	C122.398399,211.050964 126.329445,210.670349 128.926025,211.635834 
	C134.078690,213.551727 136.373260,210.784042 138.595734,207.261734 
	C140.542404,204.176514 143.725555,202.640854 146.553711,200.678833 
	C147.687195,199.892487 149.209274,199.833405 150.151169,201.138046 
	C150.928528,202.214798 150.356232,203.380051 149.761108,204.412964 
	C148.980560,205.767731 147.735626,206.570099 146.377304,207.266663 
	C144.282684,208.340759 142.668823,209.816833 142.619858,212.830002 
	C146.595261,208.436905 152.017853,207.809494 157.127670,206.416367 
	C154.842606,211.490143 154.867249,211.576523 149.683029,213.055298 
	C148.065979,213.516525 147.867737,214.212708 148.746216,216.074051 
M381.233276,140.618546 
	C375.879761,144.928909 370.376892,149.558777 368.753052,156.333359 
	C366.828125,164.364105 366.153320,172.759888 367.654816,181.073029 
	C371.094299,200.115631 370.317719,218.896576 364.434326,237.404419 
	C363.580383,240.090714 362.974670,242.855286 362.229675,245.576965 
	C361.443970,248.447464 362.708557,249.467041 365.485352,249.678802 
	C372.575531,250.219559 379.336853,248.326218 386.196350,247.141174 
	C388.641113,246.718826 389.668396,244.890686 390.547028,242.799484 
	C393.505707,235.757477 396.382141,228.649216 401.229218,222.619843 
	C402.933624,220.499634 404.237946,218.162949 405.050354,215.654449 
	C410.401276,199.132706 417.468781,183.176605 418.174927,165.282486 
	C418.705902,151.827560 410.451660,138.957733 397.613068,136.674881 
	C391.957733,135.669296 386.851471,137.848801 381.233276,140.618546 
M267.515106,231.955505 
	C261.189026,224.250366 255.436722,216.012314 247.087738,210.196136 
	C245.690750,209.222946 244.663895,207.826889 244.530594,206.063354 
	C244.276215,202.697250 242.106491,201.284134 239.242035,200.228790 
	C235.183014,198.733337 231.807663,196.578979 231.402145,191.556442 
	C231.204224,189.105240 229.199966,187.699402 226.897720,187.554642 
	C218.377869,187.018936 210.783997,183.537796 203.215637,180.145142 
	C196.893250,177.311066 190.133896,174.987549 185.809860,168.932846 
	C184.863312,167.607452 183.476715,167.339752 181.794846,167.827377 
	C178.250946,168.854904 175.348511,170.660004 172.983704,173.757111 
	C175.666199,175.321182 178.212311,174.431580 180.625870,174.670654 
	C187.788712,175.380142 194.010696,177.904709 197.456482,184.599655 
	C198.929153,187.460968 201.146530,188.415878 203.761581,189.670120 
	C209.244461,192.299820 214.556137,195.337769 219.720230,198.557571 
	C222.047134,200.008377 222.877625,202.822952 223.223862,205.516327 
	C224.758942,217.457123 222.941650,228.977722 218.600082,240.134048 
	C217.884613,241.972534 217.070938,243.910980 214.714249,244.311218 
	C208.578339,245.353287 208.968643,250.480301 207.611053,254.766083 
	C208.556229,255.074265 209.034882,255.397766 209.471237,255.348297 
	C222.421860,253.879807 235.411011,254.705124 248.382858,254.732437 
	C251.502274,254.738998 255.065353,254.760941 256.810333,257.966492 
	C258.102142,260.339630 259.800751,260.782867 262.106689,260.668549 
	C270.082306,260.273102 278.059753,259.914032 286.035797,259.526703 
	C286.897369,259.484863 287.652985,259.169159 288.281799,258.060120 
	C287.996948,255.061722 286.627167,252.291565 284.422150,249.920990 
	C278.982056,244.072464 273.508850,238.254791 267.515106,231.955505 
M134.689957,234.271469 
	C129.373535,235.074173 124.584648,237.243164 119.788078,239.593979 
	C113.396408,242.726517 110.884888,247.759232 111.369560,254.577362 
	C111.521957,256.721161 111.938950,258.819458 114.640793,259.355133 
	C116.468491,252.921265 116.455521,252.953568 123.090195,255.618698 
	C124.838684,256.321045 126.380730,256.845825 126.640144,259.197021 
	C126.888290,261.446075 129.340912,262.497345 130.868286,262.972626 
	C136.476074,264.717651 142.447037,264.380707 148.229614,264.334045 
	C154.781235,264.281158 161.342606,263.927765 167.937424,262.980621 
	C175.412552,261.907043 181.608490,258.871490 186.634399,254.005188 
	C192.221344,248.595657 198.731216,243.403488 199.711029,234.690323 
	C199.757584,234.276245 200.195862,233.832413 200.561279,233.538849 
	C208.324631,227.302032 209.231613,218.819290 208.568985,209.718048 
	C208.321884,206.324020 206.845581,203.230560 207.176941,199.593124 
	C207.444824,196.652344 205.154083,193.917313 201.715042,193.392624 
	C198.272827,192.867447 198.295090,195.953888 197.592529,197.980850 
	C194.401886,207.186371 190.900620,216.148132 181.471405,221.439392 
	C183.226074,223.923538 181.661407,227.491409 185.199127,228.965988 
	C185.906097,229.260696 186.163834,230.319565 185.609390,231.161850 
	C184.965073,232.140640 184.015228,232.244461 182.974792,231.937531 
	C179.980881,231.054337 176.997574,230.107849 173.534241,230.466507 
	C174.817062,233.510635 178.743607,234.864838 178.577393,238.897720 
	C174.433472,239.024017 171.987167,236.187042 169.322113,234.274139 
	C163.541458,230.124908 157.784195,229.591553 151.656372,233.115311 
	C149.979156,234.079788 148.260132,234.542877 146.405609,233.971405 
	C142.747986,232.844238 139.152588,233.508957 134.689957,234.271469 
M110.667114,81.840889 
	C110.728363,83.803291 112.291786,83.556503 113.543625,83.841301 
	C120.274261,85.372589 126.727211,83.498550 133.236633,82.284882 
	C136.404617,81.694214 139.603241,80.846428 142.655212,83.883209 
	C131.468109,84.921394 120.958008,90.133369 109.240799,88.076141 
	C115.215530,90.347893 121.836922,91.192413 125.634705,97.202202 
	C123.768661,98.890923 121.124237,98.070518 120.224747,100.339806 
	C120.932549,101.952675 121.779343,103.298347 123.616463,103.766052 
	C124.854927,104.081360 126.175285,105.522484 125.463722,106.211838 
	C121.544693,110.008606 124.430046,118.420456 115.124245,118.879539 
	C116.805573,119.492119 117.103386,119.640945 117.418663,119.709686 
	C129.808090,122.410774 141.785706,119.758553 153.806320,117.083450 
	C158.944870,115.939903 161.326904,113.271973 160.647293,107.972145 
	C160.484818,106.705025 160.160110,105.293266 161.924103,103.859787 
	C165.145157,105.002113 169.068024,105.658951 172.161880,107.622192 
	C183.423935,114.768631 193.921432,110.989822 204.335464,105.924820 
	C209.039536,103.636925 209.322998,99.634636 205.481827,96.033875 
	C203.274811,93.964981 200.695587,92.523788 198.021027,91.111839 
	C190.931625,87.369255 182.035278,87.675819 176.130157,81.306740 
	C175.823318,80.975784 175.214233,80.739532 174.759430,80.760040 
	C170.253296,80.963295 167.544586,78.620987 165.241852,74.949394 
	C164.009155,72.983925 161.548615,70.744652 159.068802,73.450546 
	C156.582703,76.163269 154.668808,79.400383 152.525024,82.378654 
	C154.936874,84.958534 160.966766,81.848656 160.174973,87.836952 
	C159.709579,91.356689 154.603409,93.992790 149.743607,93.513885 
	C149.566467,92.275452 149.262695,91.002060 149.220566,89.720085 
	C148.933746,80.989693 148.370926,80.629921 139.916870,77.937309 
	C130.933105,75.076004 121.210114,74.512932 112.973732,69.287010 
	C110.657066,67.817108 108.153976,66.641006 105.478363,65.190231 
	C105.332840,67.986908 103.353897,70.214897 104.974503,72.654594 
	C108.097977,72.654594 111.067299,72.622307 114.035408,72.668434 
	C115.486298,72.690987 117.363762,72.323822 117.837830,74.196793 
	C118.333900,76.156700 116.732513,77.239250 115.213707,77.957558 
	C113.526062,78.755699 111.944687,79.597519 110.667114,81.840889 
M367.075989,205.529404 
	C367.460205,198.521149 366.572113,191.629593 365.294830,184.756973 
	C363.925751,177.390533 362.710327,170.027039 364.499084,162.499039 
	C364.957062,160.571655 365.129486,158.350708 363.926575,155.537369 
	C360.804718,161.537354 359.871429,167.085785 360.073364,172.977509 
	C360.445709,183.841125 363.274536,194.615952 361.281647,205.563141 
	C361.096832,206.578140 361.574402,208.061325 359.523132,208.033401 
	C358.396637,206.421585 358.710815,204.542465 359.019592,202.818298 
	C360.036926,197.137695 359.269897,191.706039 358.159485,186.050766 
	C356.039856,175.255661 355.052094,164.335297 359.966034,153.768616 
	C362.327789,148.690063 368.456940,144.683487 364.105652,137.795914 
	C373.692902,137.309753 373.692902,137.309753 375.394653,133.661835 
	C368.916321,134.232788 363.238831,134.961838 357.820862,139.252975 
	C350.625732,144.951675 344.716766,150.862518 342.230621,160.088409 
	C341.032501,164.534531 343.174408,168.466354 342.189270,172.798187 
	C338.850433,187.479828 340.898102,202.275131 342.463470,216.951187 
	C343.040863,222.364609 345.316040,227.529175 341.665344,232.688919 
	C341.092255,233.498871 341.099426,235.048950 341.404083,236.091492 
	C342.535431,239.962982 340.952728,243.201645 339.545929,246.611542 
	C337.959229,250.457581 336.749908,254.588760 337.831848,258.712646 
	C339.146851,263.724884 340.722351,268.795074 345.811218,271.453247 
	C346.823669,267.696442 343.422943,264.041595 346.295990,259.688538 
	C354.853394,246.722916 357.276306,231.765076 358.658234,216.613785 
	C358.820282,214.837402 358.719238,212.953568 360.722168,211.913223 
	C362.904053,213.382812 362.311157,215.358185 361.856018,217.302032 
	C359.969727,225.358704 359.107056,233.595078 357.034454,241.657654 
	C355.602448,247.228394 353.770599,252.744858 352.757019,258.500183 
	C351.937195,263.155426 356.285553,266.953857 354.417969,269.717834 
	C354.569153,267.428711 358.261841,265.922516 360.700470,263.383789 
	C363.309448,260.667664 364.070496,258.441406 360.028992,256.484314 
	C358.446869,255.718155 357.408966,254.640961 357.489594,252.615128 
	C357.845673,243.671005 360.104523,235.245041 364.264618,227.346878 
	C364.968872,226.009811 365.707275,224.821045 365.797485,223.231888 
	C366.117249,217.597931 366.563629,211.971146 367.075989,205.529404 
M60.994286,71.537659 
	C60.016968,69.823410 57.781143,68.861916 57.339230,64.982346 
	C62.571381,70.322548 70.139664,68.511749 73.615082,75.273430 
	C74.795242,77.569519 78.357216,79.489601 81.732338,80.386887 
	C84.909309,81.231499 86.562958,77.710281 89.340210,78.620895 
	C89.723419,77.443771 88.000053,76.804573 89.017921,75.726456 
	C91.700371,75.340523 94.302864,74.086418 97.463158,75.585854 
	C97.366371,72.917534 98.669388,71.423775 99.758949,69.755287 
	C101.312035,67.376968 101.244354,64.563751 100.176262,62.083931 
	C99.041840,59.450108 96.650528,61.546200 94.891479,61.204235 
	C87.967239,59.858150 80.705406,61.630806 73.941704,58.194366 
	C67.698273,55.022259 60.783848,53.485268 53.754799,53.244553 
	C46.754108,53.004810 43.947681,57.884819 46.019531,64.561012 
	C47.062851,67.922928 47.473114,71.769073 46.826900,75.485649 
	C45.933525,80.623672 49.438694,84.898300 49.695457,89.816528 
	C55.561584,91.170761 53.467991,97.969635 57.770824,100.845261 
	C51.766579,99.898361 51.629089,105.029182 48.910637,107.449371 
	C51.036907,108.937546 51.638893,107.408424 52.454300,106.447723 
	C53.541611,105.166664 54.745323,105.062241 55.825455,106.324280 
	C57.354729,108.111099 54.354412,107.929497 54.415756,109.108780 
	C59.775589,111.602943 65.438240,111.620865 71.081039,111.752663 
	C74.181366,111.825073 75.763893,110.282524 75.650375,107.191742 
	C75.379372,99.812523 76.072830,92.555305 72.331444,85.361595 
	C69.514023,79.944435 65.567284,76.082237 60.994286,71.537659 
M65.853424,140.412369 
	C69.041840,136.359314 72.248001,132.338501 72.665039,126.864159 
	C72.899979,123.780167 71.776573,122.466736 68.544266,122.067848 
	C63.152103,121.402420 57.778931,120.360847 52.499191,119.064545 
	C46.298454,117.542130 46.330894,117.346260 44.327694,123.613556 
	C43.870388,125.044319 43.618607,126.674095 41.854462,127.002647 
	C40.012489,127.345711 39.331181,125.763557 38.473751,124.564705 
	C36.475548,121.770882 33.873672,119.814896 30.563171,118.815308 
	C29.242538,118.416557 27.892904,118.066811 26.907295,119.335030 
	C25.969357,120.541901 26.297531,121.893517 27.065256,123.058174 
	C28.063629,124.572716 29.026915,126.165833 30.294947,127.435966 
	C33.207035,130.352890 37.168121,131.322906 40.859875,132.808716 
	C42.345955,133.406830 45.143932,133.413574 44.238277,136.061081 
	C43.528603,138.135651 41.487232,137.083664 39.892151,136.762115 
	C37.701900,136.320602 35.378269,135.543213 33.465740,138.184006 
	C36.410526,141.101791 39.764137,142.049454 43.486755,141.292770 
	C46.276997,140.725647 48.747055,139.946106 49.543011,143.935959 
	C49.854122,145.495438 51.336700,145.727112 52.781498,145.367508 
	C57.104069,144.291641 61.668823,143.886154 65.853424,140.412369 
M242.012177,45.693817 
	C243.097595,44.953651 244.576233,44.319916 244.115723,42.698349 
	C243.666290,41.115822 242.028076,41.258549 240.752167,41.124992 
	C236.611618,40.691589 233.490112,42.995274 230.259979,45.073231 
	C228.570114,46.160336 226.498627,47.294868 224.891434,45.278351 
	C223.302811,43.285110 224.829529,41.447098 226.229034,40.039085 
	C227.861816,38.396427 229.750931,37.006710 231.545319,35.527260 
	C232.527878,34.717155 234.160843,34.146820 233.154404,32.457706 
	C232.277191,30.985455 230.914795,31.594032 229.593994,31.970083 
	C224.902969,33.305668 221.533951,37.192429 221.365479,41.930767 
	C221.286011,44.166573 220.906311,46.288334 219.659058,48.085396 
	C217.840286,50.705936 217.671799,52.681614 219.907104,55.503204 
	C223.123001,59.562576 221.138290,64.787552 216.383072,66.442329 
	C214.770599,64.681656 216.099060,63.039730 216.607773,61.374378 
	C217.099030,59.766155 217.878052,57.837364 216.268524,56.736904 
	C211.834610,53.705349 213.275986,50.373024 215.317184,46.843651 
	C216.206345,45.306248 217.825989,43.526443 215.792877,42.016113 
	C213.613983,40.397499 211.699570,41.793613 210.231125,43.589516 
	C208.108963,46.184933 207.433548,49.915958 205.223740,52.102821 
	C200.712799,56.566929 202.607300,60.147678 205.705185,63.772877 
	C207.828964,66.258171 210.293671,68.491249 212.814255,70.586555 
	C215.021500,72.421402 217.201553,71.419830 219.093796,69.758522 
	C222.808853,66.496872 225.641907,65.694916 230.449326,66.578400 
	C232.076172,66.877365 233.722382,67.071045 235.348938,67.371422 
	C237.424042,67.754623 239.776749,67.929543 240.309113,65.489456 
	C240.813156,63.179222 238.214325,62.989655 236.714630,62.088898 
	C234.636017,60.840412 231.126221,62.101730 230.260864,58.579754 
	C232.293228,55.749027 235.188217,57.080696 237.681030,56.683605 
	C240.118118,56.295391 242.910019,57.797783 245.471115,55.237556 
	C240.267731,51.420189 234.198547,54.811623 228.996307,52.679417 
	C228.885696,49.676853 231.086700,49.398548 232.888031,48.833328 
	C235.729996,47.941593 238.741364,47.573338 242.012177,45.693817 
M207.577484,241.888763 
	C206.525360,244.171326 205.235153,246.299438 203.460068,248.099152 
	C196.263184,255.395920 187.609879,260.958649 178.772720,265.654510 
	C162.362305,274.374634 144.465942,274.947723 126.385559,271.835480 
	C124.372910,271.489014 122.257614,270.427460 120.387283,272.635071 
	C122.041801,276.010468 125.534462,274.366943 127.920097,275.673950 
	C136.083023,280.146118 145.059967,279.293945 153.750854,278.018799 
	C164.818771,276.394928 175.052948,271.597534 185.271484,267.412842 
	C193.464264,264.057739 201.190674,258.797821 205.077011,250.043823 
	C206.913971,245.906052 208.063614,241.538147 213.278259,240.255371 
	C214.689667,239.908157 214.740280,238.151062 215.276886,236.961639 
	C219.111542,228.461639 219.943924,219.358643 220.335403,210.234375 
	C220.628403,203.405289 218.359100,200.403702 213.336899,199.928162 
	C212.568741,201.764755 213.478943,203.487762 213.750656,205.243973 
	C214.534912,210.313293 215.154388,215.276138 214.815842,220.545578 
	C214.322342,228.226532 210.186859,234.338013 207.577484,241.888763 
M393.478516,256.876373 
	C386.064606,258.540466 378.705902,260.549927 371.217255,261.746185 
	C366.298676,262.531891 363.519806,265.349152 361.550537,269.308685 
	C360.233856,271.956055 359.490295,274.890808 358.539734,277.713654 
	C358.463226,277.940826 358.771179,278.297516 358.803131,278.370758 
	C359.720123,279.943420 362.129211,277.952637 362.495667,280.218933 
	C362.096344,281.972748 358.757385,281.974854 360.007507,284.535858 
	C360.900330,286.364838 361.921631,288.148621 364.441772,287.370422 
	C365.699249,286.302917 363.788666,284.161530 365.875732,283.495148 
	C368.717987,283.459808 366.442505,287.038147 369.373260,287.518768 
	C370.969696,286.978241 373.172241,286.280914 375.337006,285.481262 
	C376.628784,285.004089 378.163666,284.114044 377.419342,282.628632 
	C374.576721,276.956055 377.835388,277.674774 381.481171,278.462616 
	C382.372192,278.655151 383.000336,277.972015 383.320465,276.837646 
	C375.368927,268.004700 388.045380,273.826904 388.137817,270.708130 
	C387.722717,268.702698 384.141785,269.215515 385.220703,266.575409 
	C386.408783,263.668060 388.738800,266.374878 390.709656,265.635925 
	C391.612427,262.883606 394.055237,260.614594 393.478516,256.876373 
M339.293304,226.801392 
	C339.582733,223.563873 339.614410,220.092896 336.273376,218.565979 
	C333.155548,217.141068 331.079590,219.957550 329.020477,221.815521 
	C323.962769,226.379196 318.608948,230.609177 314.632904,236.306915 
	C309.194366,244.100449 306.053253,253.162796 300.665131,260.983704 
	C299.663788,262.437134 299.783569,264.583130 302.185944,265.333160 
	C306.754791,263.019531 305.972595,256.093506 310.962219,254.450699 
	C313.727753,256.270386 310.959839,258.109589 312.005066,260.073364 
	C317.621552,252.555267 322.012238,244.443848 328.695007,238.086441 
	C332.263977,234.691238 337.161743,232.563477 339.293304,226.801392 
M203.654205,79.313148 
	C202.602432,72.176720 196.429459,68.335594 193.289291,61.452694 
	C188.245361,69.443726 179.679230,71.042137 173.790237,77.143677 
	C177.692429,77.850388 180.673462,79.483627 183.468307,82.044716 
	C188.452087,86.611641 199.046219,85.252731 203.654205,79.313148 
M156.262665,68.032814 
	C156.129120,63.076023 152.385040,66.000427 150.310593,65.388466 
	C148.815445,64.947388 146.733398,65.844589 146.028137,63.755413 
	C145.366745,61.796207 146.832184,60.730667 148.286987,59.790844 
	C149.223984,59.185532 150.492035,58.774368 149.984009,56.917648 
	C147.484055,56.216625 144.632812,55.499557 143.010834,58.217823 
	C141.981476,59.942940 140.017761,62.641308 142.510605,64.510498 
	C145.477051,66.734825 146.311218,69.810417 147.322311,72.965271 
	C147.942245,74.899574 148.862793,76.618584 151.308243,77.311363 
	C153.658478,74.886452 154.863403,71.820160 156.262665,68.032814 
M365.533600,256.377777 
	C368.817444,258.762939 372.214478,257.447235 375.613770,256.721985 
	C380.789307,255.617752 386.170166,255.188675 390.754089,251.908432 
	C381.973846,251.693237 373.408936,253.670303 364.703613,253.731247 
	C363.294922,253.741104 364.402344,255.220444 365.533600,256.377777 
M113.959885,65.562576 
	C119.843422,67.536278 125.316338,71.262154 132.129608,69.658997 
	C124.739929,66.382530 117.190742,63.639984 109.866203,59.327732 
	C108.858917,63.541149 111.389458,64.185417 113.959885,65.562576 
M321.830750,271.402496 
	C323.227997,270.545074 324.689941,269.773987 325.996063,268.794983 
	C326.684540,268.278931 326.773071,267.319092 326.238403,266.555695 
	C325.709412,265.800323 324.748230,265.434204 324.113678,266.096832 
	C321.637390,268.682739 317.350891,268.843109 315.531647,272.497528 
	C317.691559,273.577271 319.409485,272.482300 321.830750,271.402496 
M55.322483,115.303238 
	C55.177887,115.375504 54.950592,115.418175 54.911240,115.528114 
	C54.869320,115.645210 54.964832,115.920822 55.069313,115.965317 
	C60.360104,118.219063 65.757080,119.543480 72.890129,117.916779 
	C66.576210,115.055542 60.938713,117.012520 55.322483,115.303238 
M211.679825,77.125450 
	C210.420135,73.005600 207.064972,70.774536 203.756271,68.416710 
	C204.759735,70.982506 205.912308,73.469994 207.544220,75.588165 
	C208.399521,76.698334 208.960968,79.375961 211.679825,77.125450 
M334.019043,244.993561 
	C333.957214,244.682297 333.924255,244.360367 333.815887,244.066254 
	C333.783539,243.978500 333.469696,243.881683 333.403229,243.935425 
	C329.834137,246.821182 328.840881,250.590057 329.326141,255.284607 
	C333.719788,253.034424 332.177094,248.574600 334.019043,244.993561 
M103.484161,80.882225 
	C106.346367,82.035744 103.956696,84.555542 104.906059,87.549393 
	C105.859764,83.554489 106.514763,80.810822 107.285240,77.583458 
	C105.274246,77.820229 103.457115,77.595505 102.108467,78.285919 
	C99.447357,79.648232 100.854607,80.401199 103.484161,80.882225 
M308.662506,262.434845 
	C308.641571,261.975403 308.620636,261.515930 308.599731,261.056488 
	C305.770782,262.232910 304.832672,267.501526 307.045715,270.156433 
	C309.921082,268.233398 306.768799,265.100098 308.662506,262.434845 
M111.992897,266.516785 
	C110.112518,267.553741 110.324928,268.768127 111.788223,269.953552 
	C112.623619,270.630310 113.815689,270.865753 114.351486,269.806152 
	C115.198166,268.131805 114.305618,267.011566 111.992897,266.516785 
z"/>
<path fill="#000000" opacity="1.000000" stroke="none" 
	d="
M162.165039,95.077530 
	C163.339264,91.479240 165.229401,91.147018 168.147446,93.191475 
	C167.571976,95.900635 166.129471,97.838120 163.457428,98.812302 
	C162.261444,99.248352 161.072845,99.086365 160.429306,97.943336 
	C159.563370,96.405350 161.213943,96.103836 162.165039,95.077530 
z"/>
<path fill="#000000" opacity="1.000000" stroke="none" 
	d="
M137.559814,97.292061 
	C135.053207,100.382957 131.968048,99.689323 128.038162,100.110085 
	C130.755005,95.973206 133.938385,95.325447 137.351501,95.358536 
	C137.986115,95.364670 138.011795,96.343964 137.559814,97.292061 
z"/>
</svg>