<svg width="18" height="18" viewBox="0 0 18 18" fill="none" xmlns="http://www.w3.org/2000/svg">
<path d="M17.8681 16.4642L13.6121 12.2165C13.5066 12.1463 13.4011 12.0761 13.2956 12.0761L12.8383 12.0761C13.9287 10.8123 14.6321 9.12725 14.6321 7.3018C14.6321 3.29985 11.3258 -7.24234e-10 7.31607 -4.67828e-10C3.27113 -2.09173e-10 -2.1135e-10 3.29985 -4.67668e-10 7.3018C-7.26235e-10 11.3389 3.27113 14.6036 7.31607 14.6036C9.14509 14.6036 10.7982 13.9366 12.0997 12.8484L12.0997 13.3047C12.0997 13.41 12.1348 13.5154 12.2052 13.6207L16.4612 17.8684C16.637 18.0439 16.9184 18.0439 17.0591 17.8684L17.8681 17.0609C18.044 16.9205 18.044 16.6397 17.8681 16.4642ZM7.31607 12.9186C4.18564 12.9186 1.68832 10.4261 1.68832 7.3018C1.68832 4.21258 4.18564 1.68503 7.31607 1.68503C10.4113 1.68503 12.9438 4.21258 12.9438 7.3018C12.9438 10.4261 10.4113 12.9186 7.31607 12.9186Z" fill="#002237"/>
</svg>
